<svg width="175" height="185" viewBox="0 0 175 185" fill="none" xmlns="http://www.w3.org/2000/svg">
<g clip-path="url(#clip0_487_873)">
<rect width="174.37" height="184.138" rx="6.99813" fill="#5D489D"/>
<path d="M174.866 44.1928L174.866 -45.0317L85.4555 -45.0317L85.4555 44.1928L174.866 44.1928Z" fill="#FACD0F"/>
<path d="M85.2693 -0.419453L88.0576 -1.16301C108.319 -6.18189 124.119 -21.9821 129.138 -42.2435L129.882 -45.0317L130.625 -42.2435C135.644 -21.9821 151.444 -6.18189 171.706 -1.16301L174.494 -0.419449L171.706 0.324077C151.444 5.34296 135.644 21.1432 130.625 41.4046L129.882 44.1928L129.138 41.4046C124.119 21.1432 108.319 5.34296 88.0576 0.324074L85.2693 -0.419453Z" fill="#EE3C6F"/>
<path d="M-0.98024 228.219L-0.980239 209.258C11.8458 209.258 22.4412 198.663 22.4412 185.837C22.4412 173.011 12.0317 162.416 -0.980237 162.416L-0.980236 143.455C22.2553 143.455 41.2156 162.416 41.2156 185.837C41.2156 209.258 22.2553 228.219 -0.98024 228.219Z" fill="#5DC4B8"/>
<path d="M83.0395 228.033L83.0395 209.072C70.2135 209.072 59.6181 198.477 59.6181 185.651C59.6181 172.825 70.0276 162.23 83.0395 162.23L83.0396 143.269C59.804 143.269 40.8437 162.23 40.8437 185.651C40.8437 209.072 59.804 228.033 83.0395 228.033Z" fill="#5DC4B8"/>
<path d="M97.5376 116.317L104.601 103.119L91.0316 96.6129L103.486 88.0623L94.3775 76.1656L109.434 74.4927L107.018 59.6219L120.959 65.0126L125.792 50.6995L135.644 62.0384L146.611 51.6289L149.957 66.3138L164.456 62.0384L160.738 76.7233L175.423 79.6975L165.385 90.8505L177.096 100.516L162.969 105.721L168.917 119.477L153.861 117.618L152.745 132.489L140.291 123.938L132.298 136.578L125.42 123.194L112.408 130.816L112.594 115.759L97.5376 116.317Z" fill="#F5885D"/>
<mask id="mask0_487_873" style="mask-type:luminance" maskUnits="userSpaceOnUse" x="-5" y="44" width="91" height="90">
<path d="M85.6418 133.418L85.6418 44.3796L-4.88393 44.3796L-4.88394 133.418L85.6418 133.418Z" fill="white"/>
</mask>
<g mask="url(#mask0_487_873)">
<path d="M58.5027 57.9492C58.5027 65.4435 64.578 71.5188 72.0722 71.5188C79.5665 71.5188 85.6418 65.4435 85.6418 57.9492C85.6418 50.4549 79.5665 44.3796 72.0722 44.3796C64.578 44.3796 58.5027 50.4549 58.5027 57.9492Z" fill="#FACE11"/>
<path d="M58.5027 88.4341C58.5027 95.9283 64.578 102.004 72.0722 102.004C79.5665 102.004 85.6418 95.9283 85.6418 88.4341C85.6418 80.9398 79.5665 74.8645 72.0722 74.8645C64.578 74.8645 58.5027 80.9398 58.5027 88.4341Z" fill="#FACE11"/>
<path d="M58.5027 118.733C58.5027 126.228 64.578 132.303 72.0722 132.303C79.5665 132.303 85.6418 126.228 85.6418 118.733C85.6418 111.239 79.5665 105.164 72.0722 105.164C64.578 105.164 58.5027 111.239 58.5027 118.733Z" fill="#FACE11"/>
<path d="M28.0171 57.9492C28.0171 65.4435 34.0924 71.5188 41.5866 71.5188C49.0809 71.5188 55.1562 65.4435 55.1562 57.9492C55.1562 50.4549 49.0809 44.3796 41.5866 44.3796C34.0924 44.3796 28.0171 50.4549 28.0171 57.9492Z" fill="#FACE11"/>
<path d="M28.0171 88.4341C28.0171 95.9283 34.0924 102.004 41.5866 102.004C49.0809 102.004 55.1562 95.9283 55.1562 88.4341C55.1562 80.9398 49.0809 74.8645 41.5866 74.8645C34.0924 74.8645 28.0171 80.9398 28.0171 88.4341Z" fill="#FACE11"/>
<path d="M28.0171 118.733C28.0171 126.228 34.0924 132.303 41.5866 132.303C49.0809 132.303 55.1562 126.228 55.1562 118.733C55.1562 111.239 49.0809 105.164 41.5866 105.164C34.0924 105.164 28.0171 111.239 28.0171 118.733Z" fill="#FACE11"/>
<path d="M-2.28149 57.9492C-2.28149 65.4435 3.79385 71.5188 11.2881 71.5188C18.7824 71.5188 24.8577 65.4435 24.8577 57.9492C24.8577 50.4549 18.7824 44.3796 11.2881 44.3796C3.79385 44.3796 -2.28149 50.4549 -2.28149 57.9492Z" fill="#FACE11"/>
<path d="M-2.28149 88.4341C-2.28149 95.9283 3.79385 102.004 11.2881 102.004C18.7824 102.004 24.8577 95.9283 24.8577 88.4341C24.8577 80.9398 18.7824 74.8645 11.2881 74.8645C3.79385 74.8645 -2.28149 80.9398 -2.28149 88.4341Z" fill="#FACE11"/>
<path d="M-2.28149 118.733C-2.28149 126.228 3.79385 132.303 11.2881 132.303C18.7824 132.303 24.8577 126.228 24.8577 118.733C24.8577 111.239 18.7824 105.164 11.2881 105.164C3.79385 105.164 -2.28149 111.239 -2.28149 118.733Z" fill="#FACE11"/>
</g>
<path d="M181 228.219L181 137.507L91.2178 137.507L91.2178 228.219L181 228.219Z" fill="#FACD0F"/>
<path d="M91.5903 182.119C95.6798 189.555 103.487 194.76 112.595 195.131C121.704 195.503 130.254 190.484 134.716 182.863C130.626 175.428 122.819 170.223 113.711 169.851C104.602 169.479 96.0516 174.498 91.5903 182.119Z" fill="#4380C2"/>
<path d="M137.318 138.436C129.882 142.525 124.678 150.333 124.306 159.441C123.934 168.549 128.953 177.1 136.574 181.561C144.01 177.472 149.214 169.665 149.586 160.556C149.958 151.448 144.939 142.897 137.318 138.436Z" fill="#4380C2"/>
<path d="M181 184.164C176.911 176.729 169.103 171.524 159.995 171.152C150.887 170.78 142.336 175.799 137.875 183.421C141.964 190.856 149.771 196.061 158.88 196.432C167.988 196.804 176.539 191.785 181 184.164Z" fill="#4380C2"/>
<path d="M-5.99975 -5.43788C-1.91029 1.9975 5.8969 7.20227 15.0052 7.57404C24.1136 7.94581 32.6643 2.92694 37.1255 -4.69432C33.036 -12.1297 25.2289 -17.3345 16.1206 -17.7062C7.01221 -18.078 -1.53852 -13.0591 -5.99975 -5.43788Z" fill="#E81E25"/>
<path d="M83.4104 -3.39305C79.3209 -10.8284 71.5138 -16.0332 62.4055 -16.405C53.2971 -16.7767 44.7465 -11.7578 40.2852 -4.13658C44.3747 3.2988 52.1818 8.50357 61.2902 8.87534C70.5844 9.24711 78.9492 4.22821 83.4104 -3.39305Z" fill="#E81E25"/>
<path d="M37.6831 40.2895C45.1185 36.2 50.3232 28.3929 50.695 19.2846C51.0668 10.1762 46.0479 1.62553 38.4267 -2.83569C30.9913 1.25377 25.7865 9.06092 25.4148 18.1693C25.043 27.4635 30.0618 35.8283 37.6831 40.2895Z" fill="#E81E25"/>
</g>
<defs>
<clipPath id="clip0_487_873">
<rect width="174.37" height="184.138" rx="6.99813" fill="white"/>
</clipPath>
</defs>
</svg>
