<svg width="137" height="267" viewBox="0 0 137 267" fill="none" xmlns="http://www.w3.org/2000/svg">
<path d="M3.52649 66.5376L3.52649 132.383L69.5086 132.383L69.5086 66.5376L3.52649 66.5376Z" fill="#FACD0F"/>
<path d="M68.6857 165.991C68.6857 148.036 54.1301 133.48 36.1748 133.48C18.2195 133.48 3.66382 148.036 3.66382 165.991C3.66382 183.947 18.2195 198.502 36.1748 198.502C54.1301 198.502 68.6857 183.947 68.6857 165.991Z" fill="#5DC4B8"/>
<path d="M69.6462 99.4601L67.5886 100.009C52.6363 103.713 40.9762 115.373 37.2724 130.325L36.7237 132.383L36.175 130.325C32.4713 115.373 20.8112 103.713 5.85892 100.009L3.80127 99.4601L5.85892 98.9114C20.8112 95.2076 32.4713 83.5476 36.175 68.5953L36.7237 66.5376L37.2724 68.5953C40.9762 83.5476 52.6363 95.2076 67.5886 98.9114L69.6462 99.4601Z" fill="#EE3C6F"/>
<path d="M60.5926 13.313L55.3799 23.0526L65.3938 27.8538L56.2029 34.1639L62.9246 42.9432L51.8133 44.1778L53.5966 55.152L43.3083 51.1738L39.7417 61.7364L32.4713 53.3687L24.3779 61.0506L21.9087 50.2136L11.2089 53.3687L13.9524 42.5317L3.11546 40.3368L10.523 32.1062L1.88086 24.973L12.3063 21.1321L7.91666 10.981L19.028 12.3527L19.851 1.37858L29.0419 7.68873L34.9405 -1.63929L40.0161 8.23743L49.6185 2.61316L49.4813 13.7245L60.5926 13.313Z" fill="#F5885D"/>
<path d="M130.964 214.826L125.477 224.977L135.902 229.916L126.3 236.363L133.296 245.691L121.773 246.926L123.693 258.311L112.856 254.059L109.29 265.033L101.745 256.391L93.3773 264.347L90.6338 253.099L79.6596 256.391L82.5403 245.142L71.1547 242.81L78.8365 234.305L69.92 227.035L80.7571 222.92L76.2302 212.357L87.753 213.866L88.5761 202.343L98.0413 208.928L104.214 199.188L109.564 209.476L119.441 203.715L119.441 215.238L130.964 214.826Z" fill="#5D489D"/>
<mask id="mask0_321_2585" style="mask-type:luminance" maskUnits="userSpaceOnUse" x="75" y="135" width="62" height="61">
<path d="M75.5443 135.675L75.5443 195.21L136.177 195.21L136.177 135.675L75.5443 135.675Z" fill="white"/>
</mask>
<g mask="url(#mask0_321_2585)">
<path d="M93.789 186.156C93.789 181.156 89.7355 177.103 84.7353 177.103C79.7351 177.103 75.6816 181.156 75.6816 186.156C75.6816 191.157 79.7351 195.21 84.7353 195.21C89.7355 195.21 93.789 191.157 93.789 186.156Z" fill="#FACE11"/>
<path d="M93.7889 165.854C93.7889 160.854 89.7354 156.8 84.7352 156.8C79.735 156.8 75.6815 160.854 75.6815 165.854C75.6815 170.854 79.735 174.908 84.7352 174.908C89.7354 174.908 93.7889 170.854 93.7889 165.854Z" fill="#FACE11"/>
<path d="M93.7889 145.552C93.7889 140.552 89.7354 136.498 84.7352 136.498C79.735 136.498 75.6815 140.552 75.6815 145.552C75.6815 150.552 79.735 154.606 84.7352 154.606C89.7354 154.606 93.7889 150.552 93.7889 145.552Z" fill="#FACE11"/>
<path d="M114.091 186.156C114.091 181.156 110.038 177.103 105.037 177.103C100.037 177.103 95.9838 181.156 95.9838 186.156C95.9838 191.157 100.037 195.21 105.037 195.21C110.038 195.21 114.091 191.157 114.091 186.156Z" fill="#FACE11"/>
<path d="M114.091 165.854C114.091 160.854 110.038 156.8 105.037 156.8C100.037 156.8 95.9838 160.854 95.9838 165.854C95.9838 170.854 100.037 174.908 105.037 174.908C110.038 174.908 114.091 170.854 114.091 165.854Z" fill="#FACE11"/>
<path d="M114.091 145.552C114.091 140.552 110.038 136.498 105.037 136.498C100.037 136.498 95.9838 140.552 95.9838 145.552C95.9838 150.552 100.037 154.606 105.037 154.606C110.038 154.606 114.091 150.552 114.091 145.552Z" fill="#FACE11"/>
<path d="M134.393 186.156C134.393 181.156 130.34 177.103 125.34 177.103C120.339 177.103 116.286 181.156 116.286 186.156C116.286 191.157 120.339 195.21 125.34 195.21C130.34 195.21 134.393 191.157 134.393 186.156Z" fill="#FACE11"/>
<path d="M134.393 165.854C134.393 160.854 130.34 156.8 125.34 156.8C120.339 156.8 116.286 160.854 116.286 165.854C116.286 170.854 120.339 174.908 125.34 174.908C130.34 174.908 134.393 170.854 134.393 165.854Z" fill="#FACE11"/>
<path d="M134.393 145.552C134.393 140.552 130.34 136.498 125.34 136.498C120.339 136.498 116.286 140.552 116.286 145.552C116.286 150.552 120.339 154.606 125.34 154.606C130.34 154.606 134.393 150.552 134.393 145.552Z" fill="#FACE11"/>
</g>
<mask id="mask1_321_2585" style="mask-type:luminance" maskUnits="userSpaceOnUse" x="69" y="0" width="68" height="67">
<path d="M69.3715 0.692543L69.3715 66.4003L136.177 66.4003L136.177 0.69254L69.3715 0.692543Z" fill="white"/>
</mask>
<g mask="url(#mask1_321_2585)">
<path d="M89.3993 56.3864C89.3993 50.8559 84.9159 46.3725 79.3854 46.3725C73.8549 46.3725 69.3715 50.8559 69.3715 56.3864C69.3715 61.9169 73.8549 66.4003 79.3854 66.4003C84.9159 66.4003 89.3993 61.9169 89.3993 56.3864Z" fill="#FACE11"/>
<path d="M89.3992 33.8894C89.3992 28.3588 84.9158 23.8754 79.3853 23.8754C73.8547 23.8754 69.3713 28.3589 69.3713 33.8894C69.3713 39.4199 73.8547 43.9033 79.3853 43.9033C84.9158 43.9033 89.3992 39.4199 89.3992 33.8894Z" fill="#FACE11"/>
<path d="M89.3992 11.5295C89.3992 5.99897 84.9158 1.51561 79.3853 1.51561C73.8547 1.51561 69.3713 5.99898 69.3713 11.5295C69.3713 17.06 73.8547 21.5435 79.3853 21.5435C84.9158 21.5435 89.3992 17.06 89.3992 11.5295Z" fill="#FACE11"/>
<path d="M111.896 56.3864C111.896 50.8559 107.413 46.3725 101.882 46.3725C96.3517 46.3725 91.8683 50.8559 91.8683 56.3864C91.8683 61.9169 96.3517 66.4003 101.882 66.4003C107.413 66.4003 111.896 61.9169 111.896 56.3864Z" fill="#FACE11"/>
<path d="M111.896 33.8894C111.896 28.3588 107.413 23.8754 101.882 23.8754C96.3517 23.8754 91.8683 28.3589 91.8683 33.8894C91.8683 39.4199 96.3517 43.9033 101.882 43.9033C107.413 43.9033 111.896 39.4199 111.896 33.8894Z" fill="#FACE11"/>
<path d="M111.896 11.5295C111.896 5.99897 107.413 1.51561 101.882 1.51561C96.3517 1.51561 91.8683 5.99898 91.8683 11.5295C91.8683 17.06 96.3517 21.5435 101.882 21.5435C107.413 21.5435 111.896 17.06 111.896 11.5295Z" fill="#FACE11"/>
<path d="M134.256 56.3864C134.256 50.8559 129.773 46.3725 124.242 46.3725C118.712 46.3725 114.228 50.8559 114.228 56.3864C114.228 61.9169 118.712 66.4003 124.242 66.4003C129.773 66.4003 134.256 61.9169 134.256 56.3864Z" fill="#FACE11"/>
<path d="M134.256 33.8894C134.256 28.3588 129.773 23.8754 124.242 23.8754C118.712 23.8754 114.228 28.3589 114.228 33.8894C114.228 39.4199 118.712 43.9033 124.242 43.9033C129.773 43.9033 134.256 39.4199 134.256 33.8894Z" fill="#FACE11"/>
<path d="M134.256 11.5295C134.256 5.99897 129.773 1.51561 124.242 1.51561C118.712 1.51561 114.228 5.99898 114.228 11.5295C114.228 17.06 118.712 21.5435 124.242 21.5435C129.773 21.5435 134.256 17.06 134.256 11.5295Z" fill="#FACE11"/>
</g>
<path d="M3.80127 199.325L3.80127 266.267L69.9206 266.267L69.9206 199.325L3.80127 199.325Z" fill="#FACD0F"/>
<path d="M69.7832 233.482C66.7653 227.995 61.0039 224.154 54.2822 223.88C47.5605 223.606 41.2504 227.309 37.9581 232.934C40.976 238.421 46.7374 242.262 53.4591 242.536C60.1808 242.81 66.491 239.107 69.7832 233.482Z" fill="#E81E25"/>
<path d="M36.0379 265.719C41.525 262.701 45.366 256.94 45.6403 250.218C45.9147 243.359 42.2109 237.186 36.5866 233.894C31.0996 236.912 27.2586 242.673 26.9842 249.395C26.7099 256.116 30.4137 262.427 36.0379 265.719Z" fill="#E81E25"/>
<path d="M3.80127 231.973C6.81916 237.46 12.5806 241.301 19.3023 241.576C26.0239 241.85 32.3341 238.146 35.6263 232.522C32.6084 227.035 26.847 223.194 20.1253 222.92C13.4036 222.645 7.09352 226.349 3.80127 231.973Z" fill="#E81E25"/>
<path d="M37.5467 199.737C32.0596 202.755 28.2187 208.516 27.9443 215.238C27.67 222.097 31.3737 228.27 36.998 231.562C42.4851 228.544 46.326 222.782 46.6004 216.061C46.8747 209.339 43.171 203.029 37.5467 199.737Z" fill="#E81E25"/>
<path d="M137 103.164C133.982 97.6771 128.221 93.8361 121.499 93.5618C114.777 93.2874 108.467 96.9912 105.175 102.615C108.193 108.103 113.954 111.943 120.676 112.218C127.398 112.492 133.708 108.788 137 103.164Z" fill="#E81E25"/>
<path d="M103.254 135.401C108.742 132.383 112.583 126.621 112.857 119.9C113.131 113.178 109.427 106.868 103.803 103.576C98.3161 106.594 94.4752 112.355 94.2008 119.077C93.9264 125.936 97.6302 132.108 103.254 135.401Z" fill="#E81E25"/>
<path d="M71.0178 101.655C74.0357 107.142 79.7971 110.983 86.5188 111.258C93.2405 111.532 99.5506 107.828 102.843 102.204C99.825 96.7168 94.0635 92.8759 87.3419 92.6015C80.483 92.3272 74.3101 96.031 71.0178 101.655Z" fill="#E81E25"/>
<path d="M104.763 69.4186C99.2762 72.4365 95.4352 78.1979 95.1609 84.9196C94.8865 91.6413 98.5903 97.9514 104.215 101.244C109.702 98.2258 113.543 92.4643 113.817 85.7426C114.091 78.8838 110.388 72.7108 104.763 69.4186Z" fill="#E81E25"/>
</svg>
