<svg width="137" height="289" viewBox="0 0 137 289" fill="none" xmlns="http://www.w3.org/2000/svg">
<path d="M4.52649 135.805L4.52649 201.65L70.5086 201.65L70.5086 135.805L4.52649 135.805Z" fill="#FACD0F"/>
<path d="M69.6857 235.259C69.6857 217.303 55.13 202.748 37.1747 202.748C19.2194 202.748 4.66379 217.303 4.66379 235.259C4.66379 253.214 19.2194 267.77 37.1747 267.77C55.13 267.77 69.6857 253.214 69.6857 235.259Z" fill="#5DC4B8"/>
<path d="M70.6462 168.728L68.5885 169.276C53.6362 172.98 41.9762 184.64 38.2724 199.592L37.7237 201.65L37.175 199.592C33.4712 184.64 21.8112 172.98 6.85889 169.276L4.80124 168.728L6.85889 168.179C21.8112 164.475 33.4712 152.815 37.175 137.863L37.7237 135.805L38.2724 137.863C41.9762 152.815 53.6362 164.475 68.5885 168.179L70.6462 168.728Z" fill="#EE3C6F"/>
<path d="M134.296 1.77123e-05L134.296 13.9921C124.831 13.9921 117.011 21.8112 117.011 31.2764C117.011 40.7416 124.693 48.5607 134.296 48.5607L134.296 62.5527C117.149 62.5527 103.157 48.5607 103.157 31.2764C103.157 13.9921 117.149 1.84619e-05 134.296 1.77123e-05Z" fill="#5DC4B8"/>
<path d="M72.2918 0.137348L72.2918 14.1294C81.757 14.1294 89.5761 21.9485 89.5761 31.4137C89.5761 40.8789 81.8942 48.698 72.2918 48.698L72.2918 62.6901C89.4389 62.6901 103.431 48.698 103.431 31.4137C103.431 14.1294 89.4389 0.137347 72.2918 0.137348Z" fill="#5DC4B8"/>
<path d="M61.5927 82.5805L56.3799 92.3201L66.3939 97.1213L57.203 103.431L63.9247 112.211L52.8133 113.445L54.5966 124.419L44.3083 120.441L40.7417 131.004L33.4714 122.636L25.3779 130.318L22.9087 119.481L12.2089 122.636L14.9525 111.799L4.11551 109.604L11.5231 101.374L2.8809 94.2406L13.3064 90.3996L8.9167 80.2485L20.028 81.6203L20.8511 70.6461L30.0419 76.9562L35.9405 67.6282L41.0161 77.5049L50.6185 71.8807L50.4813 82.992L61.5927 82.5805Z" fill="#F5885D"/>
<path d="M131.964 284.094L126.477 294.245L136.902 299.183L127.3 305.631L134.296 314.959L122.773 316.193L124.693 327.579L113.856 323.326L110.29 334.301L102.745 325.658L94.3773 333.615L91.6338 322.366L80.6596 325.658L83.5403 314.41L72.1546 312.078L79.8365 303.573L70.92 296.303L81.757 292.187L77.2302 281.625L88.753 283.134L89.5761 271.611L99.0413 278.195L105.214 268.456L110.564 278.744L120.441 272.982L120.441 284.505L131.964 284.094Z" fill="#5D489D"/>
<mask id="mask0_322_2588" style="mask-type:luminance" maskUnits="userSpaceOnUse" x="76" y="204" width="62" height="61">
<path d="M76.5444 204.943L76.5444 264.478L137.177 264.478L137.177 204.943L76.5444 204.943Z" fill="white"/>
</mask>
<g mask="url(#mask0_322_2588)">
<path d="M94.7891 255.424C94.7891 250.424 90.7357 246.37 85.7355 246.37C80.7352 246.37 76.6818 250.424 76.6818 255.424C76.6818 260.424 80.7352 264.478 85.7355 264.478C90.7357 264.478 94.7891 260.424 94.7891 255.424Z" fill="#FACE11"/>
<path d="M94.7891 235.122C94.7891 230.121 90.7356 226.068 85.7354 226.068C80.7352 226.068 76.6817 230.121 76.6817 235.122C76.6817 240.122 80.7352 244.175 85.7354 244.175C90.7356 244.175 94.7891 240.122 94.7891 235.122Z" fill="#FACE11"/>
<path d="M94.7891 214.819C94.7891 209.819 90.7356 205.766 85.7354 205.766C80.7352 205.766 76.6817 209.819 76.6817 214.819C76.6817 219.82 80.7352 223.873 85.7354 223.873C90.7356 223.873 94.7891 219.82 94.7891 214.819Z" fill="#FACE11"/>
<path d="M115.091 255.424C115.091 250.424 111.038 246.37 106.038 246.37C101.037 246.37 96.9839 250.424 96.9839 255.424C96.9839 260.424 101.037 264.478 106.038 264.478C111.038 264.478 115.091 260.424 115.091 255.424Z" fill="#FACE11"/>
<path d="M115.091 235.122C115.091 230.121 111.038 226.068 106.038 226.068C101.037 226.068 96.9839 230.121 96.9839 235.122C96.9839 240.122 101.037 244.175 106.038 244.175C111.038 244.175 115.091 240.122 115.091 235.122Z" fill="#FACE11"/>
<path d="M115.091 214.819C115.091 209.819 111.038 205.766 106.038 205.766C101.037 205.766 96.9839 209.819 96.9839 214.819C96.9839 219.82 101.037 223.873 106.038 223.873C111.038 223.873 115.091 219.82 115.091 214.819Z" fill="#FACE11"/>
<path d="M135.394 255.424C135.394 250.424 131.34 246.37 126.34 246.37C121.34 246.37 117.286 250.424 117.286 255.424C117.286 260.424 121.34 264.478 126.34 264.478C131.34 264.478 135.394 260.424 135.394 255.424Z" fill="#FACE11"/>
<path d="M135.394 235.122C135.394 230.121 131.34 226.068 126.34 226.068C121.34 226.068 117.286 230.121 117.286 235.122C117.286 240.122 121.34 244.175 126.34 244.175C131.34 244.175 135.394 240.122 135.394 235.122Z" fill="#FACE11"/>
<path d="M135.394 214.819C135.394 209.819 131.34 205.766 126.34 205.766C121.34 205.766 117.286 209.819 117.286 214.819C117.286 219.82 121.34 223.873 126.34 223.873C131.34 223.873 135.394 219.82 135.394 214.819Z" fill="#FACE11"/>
</g>
<mask id="mask1_322_2588" style="mask-type:luminance" maskUnits="userSpaceOnUse" x="70" y="69" width="68" height="67">
<path d="M70.3715 69.9601L70.3715 135.668L137.177 135.668L137.177 69.9601L70.3715 69.9601Z" fill="white"/>
</mask>
<g mask="url(#mask1_322_2588)">
<path d="M90.3993 125.654C90.3993 120.123 85.916 115.64 80.3854 115.64C74.8549 115.64 70.3715 120.123 70.3715 125.654C70.3715 131.184 74.8549 135.668 80.3854 135.668C85.916 135.668 90.3993 131.184 90.3993 125.654Z" fill="#FACE11"/>
<path d="M90.3992 103.157C90.3992 97.6263 85.9159 93.1429 80.3853 93.1429C74.8548 93.1429 70.3714 97.6263 70.3714 103.157C70.3714 108.687 74.8548 113.171 80.3853 113.171C85.9159 113.171 90.3992 108.687 90.3992 103.157Z" fill="#FACE11"/>
<path d="M90.3992 80.797C90.3992 75.2665 85.9159 70.7831 80.3853 70.7831C74.8548 70.7831 70.3714 75.2665 70.3714 80.797C70.3714 86.3276 74.8548 90.811 80.3853 90.811C85.9159 90.811 90.3992 86.3276 90.3992 80.797Z" fill="#FACE11"/>
<path d="M112.896 125.654C112.896 120.123 108.413 115.64 102.882 115.64C97.3517 115.64 92.8683 120.123 92.8683 125.654C92.8683 131.184 97.3517 135.668 102.882 135.668C108.413 135.668 112.896 131.184 112.896 125.654Z" fill="#FACE11"/>
<path d="M112.896 103.157C112.896 97.6263 108.413 93.1429 102.882 93.1429C97.3517 93.1429 92.8683 97.6263 92.8683 103.157C92.8683 108.687 97.3517 113.171 102.882 113.171C108.413 113.171 112.896 108.687 112.896 103.157Z" fill="#FACE11"/>
<path d="M112.896 80.797C112.896 75.2665 108.413 70.7831 102.882 70.7831C97.3517 70.7831 92.8683 75.2665 92.8683 80.797C92.8683 86.3276 97.3517 90.811 102.882 90.811C108.413 90.811 112.896 86.3276 112.896 80.797Z" fill="#FACE11"/>
<path d="M135.256 125.654C135.256 120.123 130.773 115.64 125.242 115.64C119.712 115.64 115.228 120.123 115.228 125.654C115.228 131.184 119.712 135.668 125.242 135.668C130.773 135.668 135.256 131.184 135.256 125.654Z" fill="#FACE11"/>
<path d="M135.256 103.157C135.256 97.6264 130.773 93.143 125.242 93.143C119.712 93.143 115.228 97.6264 115.228 103.157C115.228 108.687 119.712 113.171 125.242 113.171C130.773 113.171 135.256 108.687 135.256 103.157Z" fill="#FACE11"/>
<path d="M135.256 80.797C135.256 75.2665 130.773 70.7831 125.242 70.7831C119.712 70.7831 115.228 75.2665 115.228 80.797C115.228 86.3276 119.712 90.811 125.242 90.811C130.773 90.811 135.256 86.3276 135.256 80.797Z" fill="#FACE11"/>
</g>
<path d="M4.80124 268.593L4.80124 335.535L70.9205 335.535L70.9205 268.593L4.80124 268.593Z" fill="#FACD0F"/>
<path d="M38.5467 269.004C33.0596 272.022 29.2186 277.784 28.9443 284.505C28.6699 291.364 32.3737 297.537 37.9979 300.829C43.485 297.811 47.326 292.05 47.6003 285.328C47.8747 278.607 44.1709 272.297 38.5467 269.004Z" fill="#E81E25"/>
<path d="M-2.92615e-06 0.000350952L0 66.9427L66.2565 66.9427L66.2565 0.000348056L-2.92615e-06 0.000350952Z" fill="#FACD0F"/>
<path d="M65.9819 34.0202C62.964 28.5331 57.2026 24.6922 50.4809 24.4178C43.7592 24.1435 37.4491 27.8472 34.1568 33.4715C37.1747 38.9585 42.9362 42.7995 49.6578 43.0739C56.3795 43.3482 62.6897 39.6445 65.9819 34.0202Z" fill="#4380C2"/>
<path d="M32.2367 66.2568C37.7237 63.2389 41.5647 57.4775 41.839 50.7558C42.1134 44.0341 38.4096 37.724 32.7853 34.4318C27.2983 37.4497 23.4573 43.2111 23.183 49.9327C22.9086 56.6544 26.6124 62.9646 32.2367 66.2568Z" fill="#4380C2"/>
<path d="M-4.20358e-07 32.5113C3.01789 37.9983 8.77931 41.8393 15.501 42.1137C22.2227 42.388 28.5328 38.6842 31.825 33.06C28.8071 27.5729 23.0457 23.7319 16.3241 23.4576C9.60238 23.1832 3.29225 26.887 -4.20358e-07 32.5113Z" fill="#4380C2"/>
<path d="M33.7456 0.274698C28.2585 3.29259 24.4176 9.05401 24.1432 15.7757C23.8689 22.4974 27.5726 28.8075 33.1969 32.0997C38.6839 29.0818 42.5249 23.3204 42.7992 16.5987C43.0736 9.87708 39.3699 3.56695 33.7456 0.274698Z" fill="#4380C2"/>
<path d="M138 172.432C134.982 166.945 129.221 163.104 122.499 162.829C115.777 162.555 109.467 166.259 106.175 171.883C109.193 177.37 114.954 181.211 121.676 181.485C128.398 181.76 134.708 178.056 138 172.432Z" fill="#E81E25"/>
<path d="M104.255 204.668C109.742 201.65 113.583 195.889 113.857 189.167C114.131 182.446 110.428 176.135 104.803 172.843C99.3162 175.861 95.4753 181.623 95.2009 188.344C94.9266 195.203 98.6303 201.376 104.255 204.668Z" fill="#E81E25"/>
<path d="M72.0179 170.923C75.0358 176.41 80.7972 180.251 87.5189 180.525C94.2406 180.8 100.551 177.096 103.843 171.471C100.825 165.984 95.0637 162.143 88.342 161.869C81.4831 161.595 75.3102 165.299 72.0179 170.923Z" fill="#E81E25"/>
<path d="M105.763 138.686C100.276 141.704 96.4354 147.466 96.161 154.187C95.8866 160.909 99.5904 167.219 105.215 170.511C110.702 167.493 114.543 161.732 114.817 155.01C115.091 148.151 111.388 141.978 105.763 138.686Z" fill="#E81E25"/>
</svg>
