<svg width="563" height="300" viewBox="0 0 563 300" fill="none" xmlns="http://www.w3.org/2000/svg">
<path d="M180.866 276.956L180.866 187.731L91.4555 187.731L91.4555 276.956L180.866 276.956Z" fill="#FACD0F"/>
<path d="M92.5707 142.19C92.5707 166.52 112.295 186.244 136.625 186.244C160.956 186.244 180.68 166.52 180.68 142.19C180.68 117.859 160.956 98.135 136.625 98.135C112.295 98.135 92.5707 117.859 92.5707 142.19Z" fill="#5DC4B8"/>
<path d="M91.2693 232.343L94.0576 231.6C114.319 226.581 130.119 210.781 135.138 190.519L135.882 187.731L136.625 190.519C141.644 210.781 157.444 226.581 177.706 231.6L180.494 232.343L177.706 233.087C157.444 238.106 141.644 253.906 136.625 274.168L135.882 276.956L135.138 274.168C130.119 253.906 114.319 238.106 94.0576 233.087L91.2693 232.343Z" fill="#EE3C6F"/>
<path d="M103.538 349.08L110.601 335.882L97.0316 329.376L109.486 320.825L100.378 308.929L115.434 307.256L113.018 292.385L126.959 297.776L131.792 283.463L141.644 294.802L152.611 284.392L155.957 299.077L170.456 294.802L166.738 309.486L181.423 312.461L171.385 323.614L183.096 333.28L168.969 338.484L174.917 352.24L159.861 350.381L158.745 365.252L146.291 356.701L138.298 369.341L131.42 355.958L118.408 363.579L118.594 348.522L103.538 349.08Z" fill="#F5885D"/>
<path d="M8.17981 76.0149L15.6152 62.2595L1.48796 55.5676L14.4999 46.8311L5.01975 34.1909L20.634 32.518L18.0317 17.0895L32.7165 22.852L37.5495 7.9812L47.7732 19.6919L59.1122 8.91062L62.8299 24.1531L77.7006 19.6919L73.797 34.9345L89.2254 38.0945L78.8159 49.6193L90.8984 59.4712L76.2135 65.0477L82.3477 79.3609L66.7334 77.3161L65.6181 92.9304L52.7921 84.008L44.4273 97.2058L37.1778 83.2644L23.7941 91.0716L23.7941 75.4573L8.17981 76.0149Z" fill="#5D489D"/>
<mask id="mask0_494_708" style="mask-type:luminance" maskUnits="userSpaceOnUse" x="1" y="102" width="83" height="82">
<path d="M83.2769 183.27L83.2769 102.596L1.11587 102.596L1.11586 183.27L83.2769 183.27Z" fill="white"/>
</mask>
<g mask="url(#mask0_494_708)">
<path d="M58.5535 114.865C58.5535 121.64 64.0463 127.133 70.8219 127.133C77.5976 127.133 83.0903 121.64 83.0903 114.865C83.0903 108.089 77.5976 102.596 70.8219 102.596C64.0463 102.596 58.5535 108.089 58.5535 114.865Z" fill="#FACE11"/>
<path d="M58.5535 142.376C58.5535 149.152 64.0463 154.644 70.8219 154.644C77.5976 154.644 83.0903 149.152 83.0903 142.376C83.0903 135.6 77.5976 130.108 70.8219 130.108C64.0463 130.108 58.5535 135.6 58.5535 142.376Z" fill="#FACE11"/>
<path d="M58.5535 169.886C58.5535 176.662 64.0463 182.155 70.8219 182.155C77.5976 182.155 83.0903 176.662 83.0903 169.886C83.0903 163.111 77.5976 157.618 70.8219 157.618C64.0463 157.618 58.5535 163.111 58.5535 169.886Z" fill="#FACE11"/>
<path d="M31.0431 114.865C31.043 121.64 36.5358 127.133 43.3114 127.133C50.0871 127.133 55.5798 121.64 55.5798 114.865C55.5798 108.089 50.0871 102.596 43.3114 102.596C36.5358 102.596 31.0431 108.089 31.0431 114.865Z" fill="#FACE11"/>
<path d="M31.0431 142.376C31.043 149.152 36.5358 154.644 43.3114 154.644C50.0871 154.644 55.5798 149.152 55.5798 142.376C55.5798 135.6 50.0871 130.108 43.3114 130.108C36.5358 130.108 31.0431 135.6 31.0431 142.376Z" fill="#FACE11"/>
<path d="M31.0431 169.886C31.043 176.662 36.5358 182.155 43.3114 182.155C50.0871 182.155 55.5798 176.662 55.5798 169.886C55.5798 163.111 50.0871 157.618 43.3114 157.618C36.5358 157.618 31.0431 163.111 31.0431 169.886Z" fill="#FACE11"/>
<path d="M3.53212 114.865C3.53212 121.64 9.02482 127.133 15.8005 127.133C22.5761 127.133 28.0688 121.64 28.0688 114.865C28.0688 108.089 22.5761 102.596 15.8005 102.596C9.02482 102.596 3.53212 108.089 3.53212 114.865Z" fill="#FACE11"/>
<path d="M3.53212 142.376C3.53212 149.152 9.02482 154.644 15.8005 154.644C22.5761 154.644 28.0688 149.152 28.0688 142.376C28.0688 135.6 22.5761 130.108 15.8005 130.108C9.02482 130.108 3.53212 135.6 3.53212 142.376Z" fill="#FACE11"/>
<path d="M3.53212 169.886C3.53212 176.662 9.02482 182.155 15.8005 182.155C22.5761 182.155 28.0688 176.662 28.0688 169.886C28.0688 163.111 22.5761 157.618 15.8005 157.618C9.02482 157.618 3.53212 163.111 3.53212 169.886Z" fill="#FACE11"/>
</g>
<mask id="mask1_494_708" style="mask-type:luminance" maskUnits="userSpaceOnUse" x="1" y="277" width="91" height="90">
<path d="M91.6418 366.182L91.6418 277.143L1.11607 277.143L1.11606 366.182L91.6418 366.182Z" fill="white"/>
</mask>
<g mask="url(#mask1_494_708)">
<path d="M64.5027 290.712C64.5027 298.207 70.578 304.282 78.0722 304.282C85.5665 304.282 91.6418 298.207 91.6418 290.712C91.6418 283.218 85.5665 277.143 78.0722 277.143C70.578 277.143 64.5027 283.218 64.5027 290.712Z" fill="#FACE11"/>
<path d="M34.0171 290.712C34.0171 298.207 40.0924 304.282 47.5866 304.282C55.0809 304.282 61.1562 298.207 61.1562 290.712C61.1562 283.218 55.0809 277.143 47.5866 277.143C40.0924 277.143 34.0171 283.218 34.0171 290.712Z" fill="#FACE11"/>
<path d="M3.71851 290.712C3.71851 298.207 9.79385 304.282 17.2881 304.282C24.7824 304.282 30.8577 298.207 30.8577 290.712C30.8577 283.218 24.7824 277.143 17.2881 277.143C9.79385 277.143 3.71851 283.218 3.71851 290.712Z" fill="#FACE11"/>
</g>
<path d="M180.494 97.0203L180.494 6.30859L90.8976 6.30859L90.8976 97.0203L180.494 97.0203Z" fill="#FACD0F"/>
<path d="M91.0842 50.7347C95.1737 58.1701 102.981 63.3749 112.089 63.7467C121.198 64.1184 129.748 59.0995 134.209 51.4783C130.12 44.0429 122.313 38.8381 113.205 38.4664C104.096 38.0946 95.5455 43.1135 91.0842 50.7347Z" fill="#E81E25"/>
<path d="M136.811 7.05176C129.376 11.1412 124.171 18.9484 123.799 28.0567C123.427 37.3509 128.446 45.7157 136.067 50.177C143.503 46.0875 148.708 38.2804 149.079 29.172C149.451 20.0637 144.432 11.513 136.811 7.05176Z" fill="#E81E25"/>
<path d="M180.494 52.7796C176.404 45.3442 168.597 40.1394 159.489 39.7676C150.381 39.3959 141.83 44.4147 137.369 52.036C141.458 59.4714 149.265 64.6762 158.374 65.0479C167.482 65.4197 176.033 60.4008 180.494 52.7796Z" fill="#E81E25"/>
<path d="M134.767 96.4624C142.203 92.3729 147.407 84.5657 147.779 75.4574C148.151 66.1632 143.132 57.7984 135.511 53.3372C128.076 57.4266 122.871 65.2338 122.499 74.3421C122.127 83.4505 127.146 92.0011 134.767 96.4624Z" fill="#E81E25"/>
<path d="M0.000251233 227.325C4.08971 234.76 11.8969 239.965 21.0052 240.337C30.1136 240.709 38.6643 235.69 43.1255 228.069C39.036 220.633 31.2289 215.428 22.1206 215.057C13.0122 214.685 4.46148 219.704 0.000251233 227.325Z" fill="#E81E25"/>
<path d="M45.7276 183.642C38.2923 187.732 33.0875 195.539 32.7157 204.647C32.344 213.756 37.3629 222.306 44.9841 226.768C52.4195 222.678 57.6243 214.871 57.996 205.763C58.3678 196.468 53.3489 188.104 45.7276 183.642Z" fill="#E81E25"/>
<path d="M89.4104 229.37C85.3209 221.935 77.5138 216.73 68.4055 216.358C59.2971 215.986 50.7465 221.005 46.2852 228.626C50.3747 236.062 58.1818 241.267 67.2902 241.638C76.5844 242.01 84.9492 236.991 89.4104 229.37Z" fill="#E81E25"/>
<path d="M43.6831 273.053C51.1185 268.963 56.3232 261.156 56.695 252.048C57.0668 242.939 52.0479 234.389 44.4267 229.927C36.9913 234.017 31.7865 241.824 31.4148 250.932C31.043 260.227 36.0618 268.591 43.6831 273.053Z" fill="#E81E25"/>
<path d="M365.866 187.957L365.866 98.7322L276.455 98.7322L276.455 187.957L365.866 187.957Z" fill="#FACD0F"/>
<path d="M277.571 53.1906C277.571 77.5214 297.295 97.2453 321.625 97.2453C345.956 97.2453 365.68 77.5214 365.68 53.1906C365.68 28.8599 345.956 9.13599 321.625 9.13598C297.295 9.13598 277.571 28.8599 277.571 53.1906Z" fill="#5DC4B8"/>
<path d="M276.269 143.344L279.058 142.601C299.319 137.582 315.119 121.782 320.138 101.52L320.882 98.7322L321.625 101.52C326.644 121.782 342.444 137.582 362.706 142.601L365.494 143.344L362.706 144.088C342.444 149.107 326.644 164.907 321.625 185.168L320.882 187.957L320.138 185.168C315.119 164.907 299.319 149.107 279.058 144.088L276.269 143.344Z" fill="#EE3C6F"/>
<path d="M190.02 371.983L190.02 353.023C202.846 353.023 213.441 342.427 213.441 329.601C213.441 316.775 203.032 306.18 190.02 306.18L190.02 287.219C213.255 287.219 232.216 306.18 232.216 329.601C232.216 353.023 213.255 371.983 190.02 371.983Z" fill="#5DC4B8"/>
<path d="M274.04 371.796L274.04 352.836C261.214 352.836 250.618 342.241 250.618 329.415C250.618 316.589 261.028 305.993 274.04 305.993L274.04 287.033C250.804 287.033 231.844 305.993 231.844 329.415C231.844 352.836 250.804 371.796 274.04 371.796Z" fill="#5DC4B8"/>
<path d="M288.538 260.08L295.601 246.883L282.032 240.377L294.486 231.826L285.378 219.929L300.434 218.256L298.018 203.386L311.959 208.776L316.792 194.463L326.644 205.802L337.611 195.393L340.957 210.077L355.456 205.802L351.738 220.487L366.423 223.461L356.385 234.614L368.096 244.28L353.969 249.485L359.917 263.24L344.861 261.382L343.745 276.252L331.291 267.702L323.298 280.342L316.42 266.958L303.408 274.579L303.594 259.523L288.538 260.08Z" fill="#F5885D"/>
<path d="M193.18 -12.9843L200.615 -26.7398L186.488 -33.4316L199.5 -42.1682L190.02 -54.8084L205.634 -56.4813L203.032 -71.9097L217.717 -66.1473L222.55 -81.0181L232.773 -69.3074L244.112 -80.0886L247.83 -64.8461L262.701 -69.3073L258.797 -54.0648L274.225 -50.9048L263.816 -39.3799L275.898 -29.5281L261.214 -23.9515L267.348 -9.63841L251.733 -11.6831L250.618 3.93117L237.792 -4.99129L229.427 8.2065L222.178 -5.73484L208.794 2.07232L208.794 -13.542L193.18 -12.9843Z" fill="#5D489D"/>
<mask id="mask2_494_708" style="mask-type:luminance" maskUnits="userSpaceOnUse" x="186" y="13" width="83" height="82">
<path d="M268.277 94.271L268.277 13.5972L186.116 13.5972L186.116 94.271L268.277 94.271Z" fill="white"/>
</mask>
<g mask="url(#mask2_494_708)">
<path d="M243.554 25.8655C243.554 32.6412 249.046 38.1339 255.822 38.1339C262.598 38.1339 268.09 32.6412 268.09 25.8655C268.09 19.0899 262.598 13.5972 255.822 13.5972C249.046 13.5972 243.554 19.0899 243.554 25.8655Z" fill="#FACE11"/>
<path d="M243.554 53.3765C243.554 60.1522 249.046 65.6449 255.822 65.6449C262.598 65.6449 268.09 60.1522 268.09 53.3765C268.09 46.6009 262.598 41.1082 255.822 41.1082C249.046 41.1082 243.554 46.6009 243.554 53.3765Z" fill="#FACE11"/>
<path d="M243.554 80.8873C243.554 87.6629 249.046 93.1557 255.822 93.1557C262.598 93.1557 268.09 87.6629 268.09 80.8873C268.09 74.1116 262.598 68.6189 255.822 68.6189C249.046 68.6189 243.554 74.1116 243.554 80.8873Z" fill="#FACE11"/>
<path d="M216.043 25.8655C216.043 32.6412 221.536 38.1339 228.311 38.1339C235.087 38.1339 240.58 32.6412 240.58 25.8655C240.58 19.0899 235.087 13.5972 228.311 13.5972C221.536 13.5972 216.043 19.0899 216.043 25.8655Z" fill="#FACE11"/>
<path d="M216.043 53.3765C216.043 60.1522 221.536 65.6449 228.311 65.6449C235.087 65.6449 240.58 60.1522 240.58 53.3765C240.58 46.6009 235.087 41.1082 228.311 41.1082C221.536 41.1082 216.043 46.6009 216.043 53.3765Z" fill="#FACE11"/>
<path d="M216.043 80.8873C216.043 87.6629 221.536 93.1557 228.311 93.1557C235.087 93.1557 240.58 87.6629 240.58 80.8873C240.58 74.1116 235.087 68.6189 228.311 68.6189C221.536 68.6189 216.043 74.1116 216.043 80.8873Z" fill="#FACE11"/>
<path d="M188.532 25.8655C188.532 32.6412 194.025 38.1339 200.8 38.1339C207.576 38.1339 213.069 32.6412 213.069 25.8655C213.069 19.0899 207.576 13.5972 200.8 13.5972C194.025 13.5972 188.532 19.0899 188.532 25.8655Z" fill="#FACE11"/>
<path d="M188.532 53.3765C188.532 60.1522 194.025 65.6449 200.8 65.6449C207.576 65.6449 213.069 60.1522 213.069 53.3765C213.069 46.6009 207.576 41.1082 200.8 41.1082C194.025 41.1082 188.532 46.6009 188.532 53.3765Z" fill="#FACE11"/>
<path d="M188.532 80.8873C188.532 87.6629 194.025 93.1557 200.8 93.1557C207.576 93.1557 213.069 87.6629 213.069 80.8873C213.069 74.1116 207.576 68.6189 200.8 68.6189C194.025 68.6189 188.532 74.1116 188.532 80.8873Z" fill="#FACE11"/>
</g>
<mask id="mask3_494_708" style="mask-type:luminance" maskUnits="userSpaceOnUse" x="186" y="188" width="91" height="90">
<path d="M276.642 277.182L276.642 188.143L186.116 188.143L186.116 277.182L276.642 277.182Z" fill="white"/>
</mask>
<g mask="url(#mask3_494_708)">
<path d="M249.503 201.713C249.503 209.207 255.578 215.282 263.072 215.282C270.567 215.282 276.642 209.207 276.642 201.713C276.642 194.219 270.567 188.143 263.072 188.143C255.578 188.143 249.503 194.219 249.503 201.713Z" fill="#FACE11"/>
<path d="M249.503 232.198C249.503 239.692 255.578 245.767 263.072 245.767C270.567 245.767 276.642 239.692 276.642 232.198C276.642 224.703 270.567 218.628 263.072 218.628C255.578 218.628 249.503 224.703 249.503 232.198Z" fill="#FACE11"/>
<path d="M249.503 262.497C249.503 269.991 255.578 276.067 263.072 276.067C270.567 276.067 276.642 269.991 276.642 262.497C276.642 255.003 270.567 248.927 263.072 248.927C255.578 248.927 249.503 255.003 249.503 262.497Z" fill="#FACE11"/>
<path d="M219.017 201.713C219.017 209.207 225.092 215.282 232.587 215.282C240.081 215.282 246.156 209.207 246.156 201.713C246.156 194.219 240.081 188.143 232.587 188.143C225.092 188.143 219.017 194.219 219.017 201.713Z" fill="#FACE11"/>
<path d="M219.017 232.198C219.017 239.692 225.092 245.767 232.587 245.767C240.081 245.767 246.156 239.692 246.156 232.198C246.156 224.703 240.081 218.628 232.587 218.628C225.092 218.628 219.017 224.703 219.017 232.198Z" fill="#FACE11"/>
<path d="M219.017 262.497C219.017 269.991 225.092 276.067 232.587 276.067C240.081 276.067 246.156 269.991 246.156 262.497C246.156 255.003 240.081 248.927 232.587 248.927C225.092 248.927 219.017 255.003 219.017 262.497Z" fill="#FACE11"/>
<path d="M188.719 201.713C188.719 209.207 194.794 215.282 202.288 215.282C209.782 215.282 215.858 209.207 215.858 201.713C215.858 194.219 209.782 188.143 202.288 188.143C194.794 188.143 188.719 194.219 188.719 201.713Z" fill="#FACE11"/>
<path d="M188.719 232.198C188.719 239.692 194.794 245.767 202.288 245.767C209.782 245.767 215.858 239.692 215.858 232.198C215.858 224.703 209.782 218.628 202.288 218.628C194.794 218.628 188.719 224.703 188.719 232.198Z" fill="#FACE11"/>
<path d="M188.719 262.497C188.719 269.991 194.794 276.067 202.288 276.067C209.782 276.067 215.858 269.991 215.858 262.497C215.858 255.003 209.782 248.927 202.288 248.927C194.794 248.927 188.719 255.003 188.719 262.497Z" fill="#FACE11"/>
</g>
<path d="M365.494 8.02099L365.494 -82.6907L275.898 -82.6907L275.898 8.02098L365.494 8.02099Z" fill="#FACD0F"/>
<path d="M319.767 7.46309C327.203 3.37363 332.407 -4.43352 332.779 -13.5419C333.151 -22.8361 328.132 -31.2009 320.511 -35.6621C313.076 -31.5727 307.871 -23.7655 307.499 -14.6572C307.127 -5.54881 312.146 3.00186 319.767 7.46309Z" fill="#E81E25"/>
<path d="M372 371.983L372 281.271L282.218 281.271L282.218 371.983L372 371.983Z" fill="#FACD0F"/>
<path d="M328.318 282.2C320.882 286.289 315.678 294.097 315.306 303.205C314.934 312.313 319.953 320.864 327.574 325.325C335.01 321.236 340.214 313.429 340.586 304.32C340.958 295.212 335.939 286.661 328.318 282.2Z" fill="#4380C2"/>
<path d="M185 138.326C189.09 145.761 196.897 150.966 206.005 151.338C215.114 151.71 223.664 146.691 228.125 139.07C224.036 131.634 216.229 126.429 207.121 126.058C198.012 125.686 189.461 130.705 185 138.326Z" fill="#E81E25"/>
<path d="M230.728 94.6433C223.292 98.7328 218.087 106.54 217.716 115.648C217.344 124.757 222.363 133.307 229.984 137.769C237.419 133.679 242.624 125.872 242.996 116.764C243.368 107.469 238.349 99.1045 230.728 94.6433Z" fill="#E81E25"/>
<path d="M274.41 140.371C270.321 132.935 262.514 127.731 253.405 127.359C244.297 126.987 235.746 132.006 231.285 139.627C235.375 147.063 243.182 152.267 252.29 152.639C261.584 153.011 269.949 147.992 274.41 140.371Z" fill="#E81E25"/>
<path d="M228.683 184.054C236.118 179.964 241.323 172.157 241.695 163.049C242.067 153.94 237.048 145.39 229.427 140.928C221.991 145.018 216.787 152.825 216.415 161.933C216.043 171.228 221.062 179.592 228.683 184.054Z" fill="#E81E25"/>
<path d="M556.866 188.335L556.866 277.559L467.455 277.559L467.455 188.335L556.866 188.335Z" fill="#FACD0F"/>
<path d="M468.571 323.101C468.571 298.77 488.295 279.046 512.625 279.046C536.956 279.046 556.68 298.77 556.68 323.101C556.68 347.432 536.956 367.156 512.625 367.156C488.295 367.156 468.571 347.432 468.571 323.101Z" fill="#5DC4B8"/>
<path d="M467.269 232.947L470.058 233.691C490.319 238.709 506.119 254.51 511.138 274.771L511.882 277.559L512.625 274.771C517.644 254.51 533.444 238.709 553.706 233.691L556.494 232.947L553.706 232.204C533.444 227.185 517.644 211.384 512.625 191.123L511.882 188.335L511.138 191.123C506.119 211.384 490.319 227.185 470.058 232.204L467.269 232.947Z" fill="#EE3C6F"/>
<path d="M381.02 4.30866L381.02 23.2689C393.846 23.2689 404.441 33.8643 404.441 46.6904C404.441 59.5164 394.032 70.1118 381.02 70.1118L381.02 89.072C404.255 89.072 423.216 70.1118 423.216 46.6904C423.216 23.2689 404.255 4.30866 381.02 4.30866Z" fill="#5DC4B8"/>
<path d="M465.04 4.49519L465.04 23.4554C452.214 23.4554 441.618 34.0508 441.618 46.8768C441.618 59.7029 452.028 70.2983 465.04 70.2983L465.04 89.2585C441.804 89.2585 422.844 70.2983 422.844 46.8768C422.844 23.4554 441.804 4.49519 465.04 4.49519Z" fill="#5DC4B8"/>
<path d="M479.538 116.211L486.601 129.409L473.032 135.915L485.486 144.466L476.378 156.362L491.434 158.035L489.018 172.906L502.959 167.515L507.792 181.828L517.644 170.489L528.611 180.899L531.957 166.214L546.456 170.489L542.738 155.805L557.423 152.83L547.385 141.677L559.096 132.011L544.969 126.807L550.917 113.051L535.861 114.91L534.745 100.039L522.291 108.59L514.298 95.9497L507.42 109.333L494.408 101.712L494.594 116.769L479.538 116.211Z" fill="#F5885D"/>
<mask id="mask4_494_708" style="mask-type:luminance" maskUnits="userSpaceOnUse" x="377" y="282" width="83" height="81">
<path d="M459.277 282.021L459.277 362.695L377.116 362.695L377.116 282.021L459.277 282.021Z" fill="white"/>
</mask>
<g mask="url(#mask4_494_708)">
<path d="M434.554 295.405C434.554 288.629 440.046 283.136 446.822 283.136C453.598 283.136 459.09 288.629 459.09 295.405C459.09 302.18 453.598 307.673 446.822 307.673C440.046 307.673 434.554 302.18 434.554 295.405Z" fill="#FACE11"/>
<path d="M407.043 295.405C407.043 288.629 412.536 283.136 419.311 283.136C426.087 283.136 431.58 288.629 431.58 295.405C431.58 302.18 426.087 307.673 419.311 307.673C412.536 307.673 407.043 302.18 407.043 295.405Z" fill="#FACE11"/>
<path d="M379.532 295.405C379.532 288.629 385.025 283.136 391.8 283.136C398.576 283.136 404.069 288.629 404.069 295.405C404.069 302.18 398.576 307.673 391.8 307.673C385.025 307.673 379.532 302.18 379.532 295.405Z" fill="#FACE11"/>
</g>
<mask id="mask5_494_708" style="mask-type:luminance" maskUnits="userSpaceOnUse" x="377" y="99" width="91" height="90">
<path d="M467.642 99.1095L467.642 188.148L377.116 188.148L377.116 99.1095L467.642 99.1095Z" fill="white"/>
</mask>
<g mask="url(#mask5_494_708)">
<path d="M440.503 174.579C440.503 167.084 446.578 161.009 454.072 161.009C461.567 161.009 467.642 167.084 467.642 174.579C467.642 182.073 461.567 188.148 454.072 188.148C446.578 188.148 440.503 182.073 440.503 174.579Z" fill="#FACE11"/>
<path d="M440.503 144.094C440.503 136.6 446.578 130.524 454.072 130.524C461.567 130.524 467.642 136.6 467.642 144.094C467.642 151.588 461.567 157.663 454.072 157.663C446.578 157.663 440.503 151.588 440.503 144.094Z" fill="#FACE11"/>
<path d="M440.503 113.794C440.503 106.3 446.578 100.225 454.072 100.225C461.567 100.225 467.642 106.3 467.642 113.794C467.642 121.289 461.567 127.364 454.072 127.364C446.578 127.364 440.503 121.289 440.503 113.794Z" fill="#FACE11"/>
<path d="M410.017 174.579C410.017 167.084 416.092 161.009 423.587 161.009C431.081 161.009 437.156 167.084 437.156 174.579C437.156 182.073 431.081 188.148 423.587 188.148C416.092 188.148 410.017 182.073 410.017 174.579Z" fill="#FACE11"/>
<path d="M410.017 144.094C410.017 136.6 416.092 130.524 423.587 130.524C431.081 130.524 437.156 136.6 437.156 144.094C437.156 151.588 431.081 157.663 423.587 157.663C416.092 157.663 410.017 151.588 410.017 144.094Z" fill="#FACE11"/>
<path d="M410.017 113.794C410.017 106.3 416.092 100.225 423.587 100.225C431.081 100.225 437.156 106.3 437.156 113.794C437.156 121.289 431.081 127.364 423.587 127.364C416.092 127.364 410.017 121.289 410.017 113.794Z" fill="#FACE11"/>
<path d="M379.719 174.579C379.719 167.084 385.794 161.009 393.288 161.009C400.782 161.009 406.858 167.084 406.858 174.579C406.858 182.073 400.782 188.148 393.288 188.148C385.794 188.148 379.719 182.073 379.719 174.579Z" fill="#FACE11"/>
<path d="M379.719 144.094C379.719 136.6 385.794 130.524 393.288 130.524C400.782 130.524 406.858 136.6 406.858 144.094C406.858 151.588 400.782 157.663 393.288 157.663C385.794 157.663 379.719 151.588 379.719 144.094Z" fill="#FACE11"/>
<path d="M379.719 113.794C379.719 106.3 385.794 100.225 393.288 100.225C400.782 100.225 406.858 106.3 406.858 113.794C406.858 121.289 400.782 127.364 393.288 127.364C385.794 127.364 379.719 121.289 379.719 113.794Z" fill="#FACE11"/>
</g>
<path d="M563 4.30856L563 95.0203L473.218 95.0203L473.218 4.30857L563 4.30856Z" fill="#FACD0F"/>
<path d="M473.59 50.4084C477.68 42.973 485.487 37.7682 494.595 37.3964C503.704 37.0247 512.254 42.0435 516.716 49.6648C512.626 57.1002 504.819 62.3049 495.711 62.6767C486.602 63.0485 478.052 58.0296 473.59 50.4084Z" fill="#4380C2"/>
<path d="M519.318 94.0916C511.882 90.0021 506.678 82.1949 506.306 73.0866C505.934 63.9782 510.953 55.4275 518.574 50.9663C526.01 55.0558 531.214 62.8629 531.586 71.9712C531.958 81.0796 526.939 89.6303 519.318 94.0916Z" fill="#4380C2"/>
<path d="M563 48.3635C558.911 55.7989 551.103 61.0037 541.995 61.3754C532.887 61.7472 524.336 56.7283 519.875 49.107C523.964 41.6717 531.771 36.4669 540.88 36.0951C549.988 35.7234 558.539 40.7422 563 48.3635Z" fill="#4380C2"/>
<path d="M517.272 4.68073C524.708 8.77019 529.913 16.5773 530.284 25.6857C530.656 34.794 525.637 43.3447 518.016 47.8059C510.581 43.7164 505.376 35.9093 505.004 26.801C504.632 17.6926 509.651 9.14196 517.272 4.68073Z" fill="#4380C2"/>
<path d="M376 237.965C380.09 230.53 387.897 225.325 397.005 224.954C406.114 224.582 414.664 229.601 419.125 237.222C415.036 244.657 407.229 249.862 398.121 250.234C389.012 250.606 380.461 245.587 376 237.965Z" fill="#E81E25"/>
<path d="M421.728 281.648C414.292 277.559 409.087 269.752 408.716 260.643C408.344 251.535 413.363 242.984 420.984 238.523C428.419 242.612 433.624 250.42 433.996 259.528C434.368 268.822 429.349 277.187 421.728 281.648Z" fill="#E81E25"/>
<path d="M465.41 235.921C461.321 243.356 453.514 248.561 444.405 248.933C435.297 249.304 426.746 244.285 422.285 236.664C426.375 229.229 434.182 224.024 443.29 223.652C452.584 223.28 460.949 228.299 465.41 235.921Z" fill="#E81E25"/>
<path d="M419.683 192.238C427.118 196.327 432.323 204.134 432.695 213.243C433.067 222.351 428.048 230.902 420.427 235.363C412.991 231.274 407.787 223.466 407.415 214.358C407.043 205.064 412.062 196.699 419.683 192.238Z" fill="#E81E25"/>
</svg>
