<svg width="1098" height="381" viewBox="0 0 1098 381" fill="none" xmlns="http://www.w3.org/2000/svg">
<g clip-path="url(#clip0_460_120)">
<path d="M569.129 130.424V184.748C583.144 187.148 621.028 202.618 644.795 237.388C671.294 276.165 669.022 325.282 668.894 329.392C668.026 360.205 667.413 408.734 665.984 486.187L728.222 486.927C728.452 411.312 728.222 365.999 728.452 290.384C724.98 256.483 710.505 212.804 670.451 176.145C630.806 139.844 587.688 132.823 569.155 130.424H569.129Z" fill="white"/>
<path d="M1046.64 277.775C1063.59 277.698 1081.92 276.754 1098 277.188C1075.25 177.857 997.597 129.276 918.587 128.893C830.565 128.485 738.127 194.399 734.196 308.639C732.204 366.205 779.1 486.367 921.88 486.367C1037.47 486.367 1095.24 379.454 1098.03 337.537C1081.94 337.537 1062.41 337.384 1046.33 337.384C1033.08 398.32 981.08 438.067 916.928 439.778C830.769 442.075 782.623 362.299 784.001 306.852C785.559 244.945 828.88 176.632 919.251 175.176C994.764 173.951 1040.94 241.065 1046.64 277.749V277.775Z" fill="white"/>
<path d="M516.362 130.016C517.026 148.473 517.256 165.475 517.894 183.932C465.74 192.611 418.64 242.928 418.206 308.638C417.721 382.057 475.67 432.603 538.674 431.429C623.888 429.872 670.962 367.583 667.899 293.933V1.30195C685.284 0.867964 710.786 0.433982 728.171 0C728.835 109.057 727.737 206.116 728.401 315.173C724.265 423.362 631.291 484.809 545.184 485.881C443.99 487.158 362.758 401.74 361.967 310.859C360.997 199.147 460.94 139.078 516.311 130.016H516.362Z" fill="white"/>
<path d="M0 278.056C6.50973 219.06 62.3402 171.628 76.8403 162.03C94.557 150.287 130.144 131.191 177.55 131.549C185.566 131.6 223.373 132.442 264.244 154.856C283.007 165.144 295.414 176.121 299.448 179.797C311.293 190.622 346.318 221.945 352.393 270.066C353.44 278.235 353.389 285.076 353.21 289.62C354.308 311.141 355.227 332.917 355.993 354.973C357.525 399.699 358.239 443.429 358.265 486.138C338.991 486.47 319.692 486.801 300.418 487.108C301.515 425.738 300.239 366.384 301.311 305.014C300.545 297.407 300.826 287.578 299.907 283.187C299.141 279.562 298.886 269.683 290.206 253.932C282.778 240.402 271.775 222.66 247.778 206.781C227.1 193.098 206.524 188.605 197.002 187.073C174.818 183.499 156.795 187.609 151.638 188.579C126.927 193.225 109.644 205.913 105.789 208.517C82.865 223.987 62.2637 252.298 54.7583 278.056" fill="white"/>
<path d="M56.6984 338.021C61.2424 354.819 64.4845 359.797 66.3992 363.473C82.5331 394.516 107.04 409.603 112.835 412.998C139.614 428.749 165.296 431.404 175.303 431.583C185.489 431.736 210.558 431.353 237.873 416.113C264.448 401.281 280.327 380.092 286.275 370.417C292.555 360.206 297.278 344.888 300.545 334.294C302.587 327.657 301.286 320.662 301.26 313.693C301.183 292.76 299.882 280.353 299.882 266.031C299.882 242.545 299.728 219.442 299.55 197.922C299.499 189.6 299.422 182.732 299.396 178.035C316.781 178.469 340.829 177.933 358.214 178.367C359.95 230.087 354.997 282.752 356.759 334.473C355.916 339.068 354.563 345.45 352.368 352.879C348.487 366.051 339.731 390.201 320.585 414.632C295.286 446.9 264.448 463.544 244.664 471.662C217.782 482.69 193.479 485.32 177.371 485.677C156.106 486.162 140.202 482.869 136.628 482.103C129.148 480.495 97.314 473.092 65.2504 447.385C54.5029 438.782 23.8689 412.181 7.73499 366.409C5.53956 360.154 3.80363 358.623 0.3573 338.021" fill="white"/>
</g>
<defs>
<clipPath id="clip0_460_120">
<rect width="1098" height="487.107" fill="white"/>
</clipPath>
</defs>
</svg>
