<svg width="1033" height="61" viewBox="0 0 1033 61" fill="none" xmlns="http://www.w3.org/2000/svg">
<path d="M-62.9996 6.23195L-39.4595 6.23195C-39.4595 22.1561 -26.3048 35.3108 -10.3806 35.3108C5.54352 35.3108 18.6982 22.3869 18.6982 6.23195L42.2383 6.23195C42.2383 35.08 18.6983 58.6201 -10.3806 58.6201C-39.4595 58.6201 -62.9996 35.0801 -62.9996 6.23195Z" fill="#5DC4B8"/>
<path d="M-62.7691 110.545L-39.2291 110.545C-39.2291 94.6208 -26.0744 81.466 -10.1502 81.466C5.77392 81.466 18.9287 94.39 18.9287 110.545L42.4688 110.545C42.4687 81.6968 18.9287 58.1568 -10.1502 58.1568C-39.2291 58.1568 -62.7691 81.6968 -62.7691 110.545Z" fill="#5DC4B8"/>
<path d="M414.954 10.1558L432.032 19.3872L440.34 1.84749L451.187 18.0024L466.88 6.23239L468.957 25.6183L488.112 22.3873L480.958 40.6193L499.421 46.6197L484.881 59.3129L498.267 73.3908L479.343 78.0065L484.881 96.4692L465.957 91.6228L462.034 110.778L447.725 97.854L435.494 112.855L428.57 94.6229L410.8 102.239L413.338 82.853L393.952 81.4682L405.03 65.5441L388.644 55.1588L405.953 46.1581L396.26 29.5417L415.646 29.5417L414.954 10.1558Z" fill="#5D489D"/>
<mask id="mask0_677_105" style="mask-type:luminance" maskUnits="userSpaceOnUse" x="281" y="1" width="101" height="103">
<path d="M281.791 103.393L381.952 103.393L381.952 1.38591L281.791 1.38592L281.791 103.393Z" fill="white"/>
</mask>
<g mask="url(#mask0_677_105)">
<path d="M366.72 38.541C358.308 38.541 351.488 45.3605 351.488 53.7728C351.488 62.1851 358.308 69.0046 366.72 69.0046C375.132 69.0046 381.952 62.1851 381.952 53.7728C381.952 45.3605 375.132 38.541 366.72 38.541Z" fill="#FACE11"/>
<path d="M332.563 38.5419C324.15 38.5419 317.331 45.3614 317.331 53.7737C317.331 62.186 324.15 69.0055 332.563 69.0055C340.975 69.0055 347.794 62.186 347.794 53.7737C347.794 45.3614 340.975 38.5419 332.563 38.5419Z" fill="#FACE11"/>
<path d="M298.406 38.542C289.994 38.542 283.175 45.3615 283.175 53.7738C283.175 62.1861 289.994 69.0056 298.406 69.0056C306.819 69.0056 313.638 62.1861 313.638 53.7738C313.638 45.3615 306.819 38.542 298.406 38.542Z" fill="#FACE11"/>
<path d="M366.72 4.3857C358.308 4.3857 351.488 11.2051 351.488 19.6174C351.488 28.0297 358.308 34.8492 366.72 34.8492C375.132 34.8492 381.952 28.0297 381.952 19.6174C381.952 11.2051 375.132 4.3857 366.72 4.3857Z" fill="#FACE11"/>
<path d="M332.563 4.38545C324.15 4.38545 317.331 11.2049 317.331 19.6172C317.331 28.0295 324.15 34.849 332.563 34.849C340.975 34.849 347.794 28.0295 347.794 19.6172C347.794 11.2049 340.975 4.38545 332.563 4.38545Z" fill="#FACE11"/>
<path d="M298.406 4.38509C289.994 4.38509 283.175 11.2045 283.175 19.6168C283.175 28.0291 289.994 34.8486 298.406 34.8486C306.819 34.8486 313.638 28.0291 313.638 19.6168C313.638 11.2045 306.819 4.38508 298.406 4.38509Z" fill="#FACE11"/>
</g>
<mask id="mask1_677_105" style="mask-type:luminance" maskUnits="userSpaceOnUse" x="54" y="1" width="112" height="113">
<path d="M54.7002 113.777L165.246 113.777L165.246 1.38525L54.7002 1.38526L54.7002 113.777Z" fill="white"/>
</mask>
<g mask="url(#mask1_677_105)">
<path d="M148.399 42.2351C139.094 42.2351 131.551 49.7779 131.551 59.0824C131.551 68.3869 139.094 75.9297 148.399 75.9297C157.703 75.9297 165.246 68.3869 165.246 59.0824C165.246 49.7779 157.703 42.2351 148.399 42.2351Z" fill="#FACE11"/>
<path d="M110.55 42.2347C101.246 42.2347 93.703 49.7775 93.703 59.082C93.703 68.3865 101.246 75.9293 110.55 75.9293C119.855 75.9293 127.398 68.3865 127.398 59.082C127.398 49.7775 119.855 42.2347 110.55 42.2347Z" fill="#FACE11"/>
<path d="M72.9329 42.2353C63.6284 42.2353 56.0857 49.7781 56.0857 59.0826C56.0857 68.3871 63.6284 75.9299 72.9329 75.9299C82.2374 75.9299 89.7803 68.3871 89.7803 59.0826C89.7803 49.7781 82.2374 42.2353 72.9329 42.2353Z" fill="#FACE11"/>
<path d="M148.4 4.61632C139.095 4.61632 131.553 12.1592 131.553 21.4637C131.553 30.7682 139.095 38.3109 148.4 38.3109C157.704 38.3109 165.247 30.7682 165.247 21.4637C165.247 12.1591 157.704 4.61632 148.4 4.61632Z" fill="#FACE11"/>
<path d="M110.551 4.61693C101.247 4.61693 93.7038 12.1598 93.7038 21.4643C93.7038 30.7688 101.247 38.3115 110.551 38.3115C119.856 38.3115 127.398 30.7688 127.398 21.4643C127.398 12.1598 119.856 4.61693 110.551 4.61693Z" fill="#FACE11"/>
<path d="M72.9329 4.6173C63.6284 4.6173 56.0857 12.1601 56.0857 21.4646C56.0857 30.7691 63.6284 38.3119 72.9329 38.3119C82.2374 38.3119 89.7803 30.7691 89.7803 21.4646C89.7803 12.1601 82.2374 4.61729 72.9329 4.6173Z" fill="#FACE11"/>
</g>
<path d="M227.097 0.000142478C217.865 5.07741 211.403 14.7704 210.942 26.0789C210.48 37.3873 216.711 48.0034 226.174 53.5422C235.405 48.465 241.867 38.772 242.329 27.4636C242.79 16.1551 236.559 5.53898 227.097 0.000142478Z" fill="#E81E25"/>
<path d="M281.33 56.7737C276.253 47.5423 266.56 41.0804 255.251 40.6188C243.943 40.1572 233.327 46.3884 227.788 55.8506C232.865 65.082 242.558 71.544 253.867 72.0055C265.406 72.4671 275.791 66.2359 281.33 56.7737Z" fill="#E81E25"/>
<path d="M224.558 111.008C233.79 105.931 240.252 96.2376 240.713 84.9292C241.175 73.6207 234.944 63.0046 225.481 57.4658C216.25 62.5431 209.788 72.236 209.327 83.5444C208.865 95.0837 215.096 105.469 224.558 111.008Z" fill="#E81E25"/>
<path d="M170.321 54.2366C175.398 63.468 185.091 69.9299 196.4 70.3915C207.708 70.8531 218.324 64.6219 223.863 55.1598C218.786 45.9284 209.093 39.4664 197.785 39.0048C186.245 38.5433 175.86 44.7744 170.321 54.2366Z" fill="#E81E25"/>
<path d="M837.524 7.687L726.747 7.68701L726.747 118.695L837.524 118.694L837.524 7.687Z" fill="#FACD0F"/>
<path d="M670.205 117.31C700.413 117.31 724.901 92.8216 724.901 62.6139C724.901 32.4061 700.413 7.91784 670.205 7.91784C639.997 7.91784 615.509 32.4061 615.509 62.6139C615.509 92.8216 639.997 117.31 670.205 117.31Z" fill="#5DC4B8"/>
<path d="M782.135 118.924L781.212 115.462C774.981 90.307 755.364 70.6902 730.209 64.4591L726.747 63.5359L730.209 62.6128C755.364 56.3816 774.981 36.7649 781.212 11.6093L782.135 8.14758L783.059 11.6093C789.29 36.7649 808.907 56.3816 834.062 62.6128L837.524 63.5359L834.062 64.459C808.907 70.6902 789.29 90.307 783.059 115.462L782.135 118.924Z" fill="#EE3C6F"/>
<path d="M927.07 103.694L910.684 94.9241L902.606 111.771L891.99 96.3087L877.22 107.617L875.143 88.9236L856.68 91.9238L863.373 74.615L845.603 68.6145L859.68 56.383L846.757 42.7667L864.989 38.6125L859.68 20.6113L877.913 25.227L881.605 6.99505L895.452 19.4574L907.453 4.91796L913.915 22.4576L930.993 15.0725L928.685 33.7661L947.148 35.1507L936.532 50.6134L952.225 60.5371L935.609 69.0761L945.071 85.2311L926.377 85.0003L927.07 103.694Z" fill="#F5885D"/>
<path d="M614.123 1.14965L501.5 1.14966L501.5 112.388L614.123 112.388L614.123 1.14965Z" fill="#FACD0F"/>
<path d="M556.657 112.16C565.889 107.083 572.351 97.3896 572.812 86.0812C573.274 74.7727 567.043 64.1566 557.58 58.6178C548.349 63.6951 541.887 73.388 541.425 84.6964C540.964 96.0049 547.195 106.621 556.657 112.16Z" fill="#E81E25"/>
<path d="M502.425 55.3861C507.502 64.6175 517.195 71.0794 528.504 71.541C540.043 72.0026 550.428 65.7714 555.967 56.3092C550.89 47.0778 541.197 40.6158 529.888 40.1543C518.58 39.6927 507.964 45.9239 502.425 55.3861Z" fill="#E81E25"/>
<path d="M559.197 1.15124C549.965 6.22851 543.503 15.9214 543.042 27.2299C542.58 38.5383 548.811 49.1544 558.273 54.6933C567.505 49.616 573.967 39.9231 574.428 28.6146C574.89 17.3062 568.659 6.69008 559.197 1.15124Z" fill="#E81E25"/>
<path d="M613.432 57.9225C608.355 48.6911 598.662 42.2291 587.353 41.7675C575.814 41.306 565.429 47.5371 559.89 56.9993C564.967 66.2307 574.66 72.6927 585.968 73.1542C597.277 73.6158 607.893 67.3847 613.432 57.9225Z" fill="#E81E25"/>
<path d="M1066 0.0716454L953.377 0.0716553L953.377 111.541L1066 111.541L1066 0.0716454Z" fill="#FACD0F"/>
<path d="M1008.76 111.08C1018 106.003 1024.46 96.3095 1024.92 85.0011C1025.38 73.6926 1019.15 63.0766 1009.69 57.5377C1000.46 62.615 993.994 72.3079 993.533 83.6164C993.071 94.9248 999.302 105.541 1008.76 111.08Z" fill="#4380C2"/>
<path d="M954.532 54.3064C959.609 63.5378 969.302 69.9997 980.611 70.4613C991.919 70.9229 1002.54 64.6917 1008.07 55.2295C1003 45.9981 993.304 39.5361 981.996 39.0746C970.687 38.613 960.071 44.8442 954.532 54.3064Z" fill="#4380C2"/>
<path d="M1011.31 0.0711656C1002.07 5.14843 995.613 14.8414 995.151 26.1498C994.689 37.4583 1000.92 48.0744 1010.38 53.6132C1019.61 48.5359 1026.08 38.843 1026.54 27.5345C1027 16.2261 1020.77 5.61 1011.31 0.0711656Z" fill="#4380C2"/>
<path d="M1065.54 56.8428C1060.46 47.6114 1050.77 41.1494 1039.46 40.6878C1028.15 40.2263 1017.54 46.4574 1012 55.9196C1017.08 65.151 1026.77 71.6129 1038.08 72.0745C1049.39 72.5361 1060 66.3049 1065.54 56.8428Z" fill="#4380C2"/>
</svg>
