<svg width="127" height="128" viewBox="0 0 127 128" fill="none" xmlns="http://www.w3.org/2000/svg">
<path d="M-4.80356e-05 26.7094L26.9858 127.422L126.667 100.713L99.6807 0L-4.80356e-05 26.7094Z" fill="#FACD0F"/>
<path d="M112.982 51.2926C106.23 44.254 96.0133 40.798 85.7902 43.0949C75.5671 45.3918 67.5667 53.5077 64.8809 63.2964C71.6332 70.335 81.8494 73.791 92.0725 71.4941C102.296 69.1972 110.296 61.0813 112.982 51.2926Z" fill="#4380C2"/>
<path d="M75.208 113.395C82.2466 106.642 85.7026 96.4259 83.4057 86.2028C81.1088 75.9797 72.9928 67.9793 63.2042 65.2935C56.1656 72.0458 52.7096 82.262 55.0064 92.4852C57.3033 102.708 65.4193 110.709 75.208 113.395Z" fill="#4380C2"/>
<path d="M13.1062 75.6206C19.8585 82.6592 30.0747 86.1152 40.2979 83.8183C50.521 81.5214 58.5213 73.4055 61.2072 63.6168C54.4549 56.5782 44.2387 53.1222 34.0155 55.4191C23.7924 57.7159 15.7921 65.8319 13.1062 75.6206Z" fill="#4380C2"/>
<path d="M50.8801 13.5182C43.8415 20.2705 40.3855 30.4867 42.6824 40.7098C44.9793 50.933 53.0952 58.9333 62.8839 61.6191C69.9224 54.8669 73.3785 44.6506 71.0816 34.4275C68.7847 24.2043 60.6688 16.204 50.8801 13.5182Z" fill="#4380C2"/>
</svg>
