<svg width="106" height="108" viewBox="0 0 106 108" fill="none" xmlns="http://www.w3.org/2000/svg">
<mask id="mask0_699_87" style="mask-type:luminance" maskUnits="userSpaceOnUse" x="0" y="0" width="106" height="108">
<path d="M105.372 0H0V107.305H105.372V0Z" fill="white"/>
</mask>
<g mask="url(#mask0_699_87)">
<path d="M16.0474 32.0949C24.9102 32.0949 32.0949 24.9102 32.0949 16.0474C32.0949 7.18468 24.9102 0 16.0474 0C7.18469 0 0 7.18468 0 16.0474C0 24.9102 7.18469 32.0949 16.0474 32.0949Z" fill="#4580C2"/>
<path d="M52.0094 32.0949C60.8721 32.0949 68.0568 24.9102 68.0568 16.0474C68.0568 7.18468 60.8721 0 52.0094 0C43.1466 0 35.9619 7.18468 35.9619 16.0474C35.9619 24.9102 43.1466 32.0949 52.0094 32.0949Z" fill="#4580C2"/>
<path d="M87.9708 32.0949C96.8336 32.0949 104.018 24.9102 104.018 16.0474C104.018 7.18468 96.8336 0 87.9708 0C79.1081 0 71.9234 7.18468 71.9234 16.0474C71.9234 24.9102 79.1081 32.0949 87.9708 32.0949Z" fill="#4580C2"/>
<path d="M16.0474 68.0565C24.9102 68.0565 32.0949 60.8719 32.0949 52.0091C32.0949 43.1463 24.9102 35.9617 16.0474 35.9617C7.18469 35.9617 0 43.1463 0 52.0091C0 60.8719 7.18469 68.0565 16.0474 68.0565Z" fill="#4580C2"/>
<path d="M52.0094 68.0565C60.8721 68.0565 68.0568 60.8719 68.0568 52.0091C68.0568 43.1463 60.8721 35.9617 52.0094 35.9617C43.1466 35.9617 35.9619 43.1463 35.9619 52.0091C35.9619 60.8719 43.1466 68.0565 52.0094 68.0565Z" fill="#4580C2"/>
<path d="M87.9708 68.0565C96.8336 68.0565 104.018 60.8719 104.018 52.0091C104.018 43.1463 96.8336 35.9617 87.9708 35.9617C79.1081 35.9617 71.9234 43.1463 71.9234 52.0091C71.9234 60.8719 79.1081 68.0565 87.9708 68.0565Z" fill="#4580C2"/>
<path d="M16.0474 104.018C24.9102 104.018 32.0949 96.8335 32.0949 87.9708C32.0949 79.108 24.9102 71.9233 16.0474 71.9233C7.18469 71.9233 0 79.108 0 87.9708C0 96.8335 7.18469 104.018 16.0474 104.018Z" fill="#4580C2"/>
<path d="M52.0094 104.018C60.8721 104.018 68.0568 96.8335 68.0568 87.9708C68.0568 79.108 60.8721 71.9233 52.0094 71.9233C43.1466 71.9233 35.9619 79.108 35.9619 87.9708C35.9619 96.8335 43.1466 104.018 52.0094 104.018Z" fill="#4580C2"/>
<path d="M87.9708 104.018C96.8336 104.018 104.018 96.8335 104.018 87.9708C104.018 79.108 96.8336 71.9233 87.9708 71.9233C79.1081 71.9233 71.9234 79.108 71.9234 87.9708C71.9234 96.8335 79.1081 104.018 87.9708 104.018Z" fill="#4580C2"/>
</g>
</svg>
